<svg width="25" height="24" viewBox="0 0 25 24" fill="none" xmlns="http://www.w3.org/2000/svg">
<g clip-path="url(#clip0_67131_166)">
<path d="M12.7045 11.0183H21.4315C21.4765 11.4041 21.5 11.8 21.5 12.205C21.5 14.9452 20.4977 17.2525 18.7611 18.82C17.2424 20.1942 15.1632 21 12.6841 21C11.478 21.0005 10.2835 20.7681 9.16909 20.316C8.05465 19.864 7.04204 19.2011 6.18912 18.3653C5.33621 17.5296 4.65971 16.5373 4.1983 15.4452C3.73688 14.353 3.4996 13.1825 3.5 12.0005C3.49946 10.8184 3.73665 9.64776 4.198 8.55554C4.65936 7.46331 5.33583 6.47089 6.18876 5.63501C7.04169 4.79913 8.05435 4.13618 9.16886 3.68405C10.2834 3.23192 11.4779 2.99947 12.6841 3C15.1591 3 17.2383 3.89203 18.8286 5.34434L17.3334 6.80868C16.1491 5.68712 14.5485 5.00457 12.7045 5.00457C11.7644 5.00457 10.8335 5.18604 9.96488 5.53863C9.0963 5.89121 8.30709 6.40801 7.6423 7.0595C6.97752 7.71099 6.45019 8.48443 6.09041 9.33565C5.73063 10.1869 5.54546 11.0992 5.54546 12.0205C5.54546 12.9419 5.73063 13.8542 6.09041 14.7054C6.45019 15.5567 6.97752 16.3301 7.6423 16.9816C8.30709 17.6331 9.0963 18.1499 9.96488 18.5025C10.8335 18.8551 11.7644 19.0365 12.7045 19.0365C16.3107 19.0365 18.9882 16.4226 19.431 13.0228H12.7045V11.0183Z" fill="#1A162E"/>
</g>
<defs>
<clipPath id="clip0_67131_166">
<rect width="24" height="24" fill="white" transform="translate(0.5)"/>
</clipPath>
</defs>
</svg>
